[b][url]http://www.imdb.com/title/tt1258972/[/url]


[size=4]The Man with the Iron Fists[/size]


Plot: On the hunt for a fabled treasure of gold, a band of warriors, assassins, and a rogue British soldier descend upon a village in feudal China, where a humble blacksmith looks to defend himself and his fellow villagers.
 


Director: 
RZA

 Writers: 
Eli Roth (screenplay), RZA (screenplay)
 
Stars:
 Russell Crowe, Cung Le , Lucy Liu, Dave Bautista ,Rick Yune ,Daniel Wu

Genres:
 Action 

Country:
USA |Hong Kong [/b]

Format                                   : AVI
Format/Info                              : Audio Video Interleave
File size                                : 692 MiB
Duration                                 : 1h 35mn
Overall bit rate                         : 1 011 Kbps
Writing application                      : Lavf54.32.100

Video
ID                                       : 0
Format                                   : MPEG-4 Visual
Format profile                           : Simple@L3
Format settings, BVOP                    : No
Format settings, QPel                    : No
Format settings, GMC                     : No warppoints
Format settings, Matrix                  : Default (H.263)
Codec ID                                 : XVID
Codec ID/Hint                            : XviD
Duration                                 : 1h 35mn
Bit rate                                 : 904 Kbps
Width                                    : 640 pixels
Height                                   : 304 pixels
Display aspect ratio                     : 2.118
Frame rate                               : 23.976 fps
Color space                              : YUV
Chroma subsampling                       : 4:2:0
Bit depth                                : 8 bits
Scan type                                : Progressive
Compression mode                         : Lossy
Bits/(Pixel*Frame)                       : 0.194
Stream size                              : 619 MiB (89%)
Writing library                          : XviD 64

Audio
ID                                       : 1
Format                                   : AC-3
Format/Info                              : Audio Coding 3
Mode extension                           : CM (complete main)
Format settings, Endianness              : Big
Codec ID                                 : 2000
Duration                                 : 1h 35mn
Bit rate mode                            : Constant
Bit rate                                 : 96.0 Kbps
Channel(s)                               : 2 channels
Channel positions                        : Front: L R
Sampling rate                            : 48.0 KHz
Bit depth                                : 16 bits
Compression mode                         : Lossy
Stream size                              : 65.7 MiB (9%)
Alignment                                : Aligned on interleaves
Interleave, duration                     : 32 ms (0.77 video frame)


 
http://www.shotpix.com/images/57217859245332550904.png 
http://www.shotpix.com/images/93322138644596432284.png 
http://www.shotpix.com/images/65241569275783132042.png